<svg width="500" height="500" viewBox="0 0 500 500" fill="none" xmlns="http://www.w3.org/2000/svg">
<g clip-path="url(#clip0_350:16)">
<path fill-rule="evenodd" clip-rule="evenodd" d="M249.953 -0.0458984C227.688 54.5244 214.266 90.2197 189.484 143.173C204.68 159.282 223.328 178.032 253.547 199.22C220.984 185.821 198.859 172.368 182.172 158.407C150.453 224.579 100.766 318.86 -0.0703125 500.048C79.2578 454.298 140.625 426.095 197.953 415.313C195.492 404.735 194.094 393.298 194.203 381.368L194.297 378.829C195.547 328.048 221.969 289.001 253.258 291.657C284.547 294.313 308.867 337.642 307.609 388.423C307.419 397.595 306.349 406.728 304.414 415.696C361.055 426.774 421.836 454.915 500.016 500.048L457.672 421.72C436.969 405.681 415.383 384.798 371.344 362.188C401.617 370.056 423.297 379.126 440.094 389.274C306.5 140.524 295.672 107.478 249.859 -0.0458984H249.953Z" fill="black"/>
</g>
<defs>
<clipPath id="clip0_350:16">
<rect width="500" height="500" fill="white"/>
</clipPath>
</defs>
</svg>
